<svg width="24" height="24" viewBox="0 0 24 24" fill="none" xmlns="http://www.w3.org/2000/svg" fill="currentColor">
<path fill-rule="evenodd" clip-rule="evenodd" d="M3.75 6.44575V17.7942C4.93444 17.3007 6.20864 17.0442 7.5 17.0442C8.79136 17.0442 10.0656 17.3007 11.25 17.7942V6.44575C10.0906 5.85409 8.80567 5.54422 7.5 5.54422C6.19433 5.54422 4.9094 5.85409 3.75 6.44575ZM12.75 6.44575V17.7942C13.9344 17.3007 15.2086 17.0442 16.5 17.0442C17.7914 17.0442 19.0656 17.3007 20.25 17.7942V6.44575C19.0906 5.85409 17.8057 5.54422 16.5 5.54422C15.1943 5.54422 13.9094 5.85409 12.75 6.44575ZM12 5.1448C10.6121 4.4227 9.06871 4.04422 7.5 4.04422C5.78852 4.04422 4.10719 4.49473 2.625 5.35047C2.39295 5.48445 2.25 5.73204 2.25 5.99999V19C2.25 19.2679 2.39295 19.5155 2.625 19.6495C2.85705 19.7835 3.14295 19.7835 3.375 19.6495C4.62916 18.9254 6.05182 18.5442 7.5 18.5442C8.94818 18.5442 10.3708 18.9254 11.625 19.6495C11.8571 19.7835 12.1429 19.7835 12.375 19.6495C13.6292 18.9254 15.0518 18.5442 16.5 18.5442C17.9482 18.5442 19.3708 18.9254 20.625 19.6495C20.857 19.7835 21.143 19.7835 21.375 19.6495C21.607 19.5155 21.75 19.2679 21.75 19V5.99999C21.75 5.73204 21.607 5.48445 21.375 5.35047C19.8928 4.49473 18.2115 4.04422 16.5 4.04422C14.9313 4.04422 13.3879 4.4227 12 5.1448Z" fill="black"/>
</svg>
