<svg width="24" height="24" viewBox="0 0 24 24" fill="none" xmlns="http://www.w3.org/2000/svg" fill="currentColor">
<path fill-rule="evenodd" clip-rule="evenodd" d="M9.11599 4.11612C9.35041 3.8817 9.66836 3.75 9.99988 3.75H11.9999C12.3314 3.75 12.6493 3.8817 12.8838 4.11612C13.1182 4.35054 13.2499 4.66848 13.2499 5C13.2499 5.33152 13.1182 5.64946 12.8838 5.88388C12.6493 6.1183 12.3314 6.25 11.9999 6.25H9.99988C9.66836 6.25 9.35041 6.1183 9.11599 5.88388C8.88157 5.64946 8.74988 5.33152 8.74988 5C8.74988 4.66848 8.88157 4.35054 9.11599 4.11612ZM7.35412 4.25H5.99988C5.27053 4.25 4.57106 4.53973 4.05533 5.05546C3.53961 5.57118 3.24988 6.27065 3.24988 7V19C3.24988 19.7293 3.53961 20.4288 4.05533 20.9445C4.57106 21.4603 5.27053 21.75 5.99988 21.75H11.6969C12.1111 21.75 12.4469 21.4142 12.4469 21C12.4469 20.5858 12.1111 20.25 11.6969 20.25H5.99988C5.66836 20.25 5.35041 20.1183 5.11599 19.8839C4.88157 19.6495 4.74988 19.3315 4.74988 19V7C4.74988 6.66848 4.88157 6.35054 5.11599 6.11612C5.35041 5.8817 5.66836 5.75 5.99988 5.75H7.35412C7.481 6.19755 7.72055 6.60976 8.05533 6.94454C8.57106 7.46027 9.27053 7.75 9.99988 7.75H11.9999C12.7292 7.75 13.4287 7.46027 13.9444 6.94454C14.2792 6.60976 14.5188 6.19755 14.6456 5.75H15.9999C16.3314 5.75 16.6493 5.8817 16.8838 6.11612C17.1182 6.35054 17.2499 6.66848 17.2499 7V12C17.2499 12.4142 17.5857 12.75 17.9999 12.75C18.4141 12.75 18.7499 12.4142 18.7499 12V7C18.7499 6.27065 18.4601 5.57118 17.9444 5.05546C17.4287 4.53973 16.7292 4.25 15.9999 4.25H14.6456C14.5188 3.80245 14.2792 3.39024 13.9444 3.05546C13.4287 2.53973 12.7292 2.25 11.9999 2.25H9.99988C9.27053 2.25 8.57106 2.53973 8.05533 3.05546C7.72055 3.39024 7.481 3.80245 7.35412 4.25ZM7.24988 11C7.24988 10.5858 7.58566 10.25 7.99988 10.25H11.9999C12.4141 10.25 12.7499 10.5858 12.7499 11C12.7499 11.4142 12.4141 11.75 11.9999 11.75H7.99988C7.58566 11.75 7.24988 11.4142 7.24988 11ZM7.99988 14.25C7.58566 14.25 7.24988 14.5858 7.24988 15C7.24988 15.4142 7.58566 15.75 7.99988 15.75H10.9999C11.4141 15.75 11.7499 15.4142 11.7499 15C11.7499 14.5858 11.4141 14.25 10.9999 14.25H7.99988ZM16.5 14.25C15.638 14.25 14.8113 14.5924 14.2019 15.2019C13.5924 15.8114 13.25 16.638 13.25 17.5C13.25 18.362 13.5924 19.1886 14.2019 19.7981C14.8113 20.4076 15.638 20.75 16.5 20.75C17.1073 20.75 17.697 20.58 18.2057 20.2664L20.4696 22.5303C20.7625 22.8232 21.2374 22.8232 21.5303 22.5303C21.8232 22.2374 21.8232 21.7626 21.5303 21.4697L19.2664 19.2057C19.58 18.6971 19.75 18.1073 19.75 17.5C19.75 16.638 19.4075 15.8114 18.798 15.2019C18.1886 14.5924 17.3619 14.25 16.5 14.25ZM15.2625 16.2626C15.5907 15.9344 16.0358 15.75 16.5 15.75C16.9641 15.75 17.4092 15.9344 17.7374 16.2626C18.0656 16.5908 18.25 17.0359 18.25 17.5C18.25 17.9641 18.0656 18.4092 17.7374 18.7374C17.4092 19.0656 16.9641 19.25 16.5 19.25C16.0358 19.25 15.5907 19.0656 15.2625 18.7374C14.9343 18.4092 14.75 17.9641 14.75 17.5C14.75 17.0359 14.9343 16.5908 15.2625 16.2626Z" fill="black"/>
</svg>
