<svg xmlns="http://www.w3.org/2000/svg" width="24" height="24" fill="currentColor" viewBox="0 0 24 24">
  <path fill-rule="evenodd" d="M7 3.7A1.3 1.3 0 0 0 5.7 5v14A1.3 1.3 0 0 0 7 20.3h10a1.3 1.3 0 0 0 1.3-1.3V8.7H15A1.7 1.7 0 0 1 13.3 7V3.7H7Zm7.7.99 2.61 2.61H15a.3.3 0 0 1-.3-.3V4.69Zm-9.61-1.6A2.7 2.7 0 0 1 7 2.3h7a.7.7 0 0 1 .495.205l5 5A.7.7 0 0 1 19.7 8v11a2.7 2.7 0 0 1-2.7 2.7H7A2.7 2.7 0 0 1 4.3 19V5a2.7 2.7 0 0 1 .79-1.91Z" clip-rule="evenodd"/>
  <path d="M7.5 12.739c0-.408.206-.739.46-.739h3.652c.254 0 .46.33.46.739 0 .408-.206.739-.46.739H7.96c-.253 0-.459-.331-.459-.74Zm0 3.522c0-.408.206-.739.46-.739h8.08c.254 0 .46.331.46.74 0 .407-.206.738-.46.738H7.96c-.254 0-.46-.33-.46-.739Z"/>
</svg>
