<svg xmlns="http://www.w3.org/2000/svg" width="24" height="24" fill="currentColor" viewBox="0 0 24 24">
  <path d="M12 14.063a.75.75 0 0 1 .75-.75h7.5a.75.75 0 0 1 0 1.5h-7.5a.75.75 0 0 1-.75-.75Zm-9-4.032a.75.75 0 0 1 .75-.75h16.5a.75.75 0 0 1 0 1.5H3.75a.75.75 0 0 1-.75-.75ZM3 6a.75.75 0 0 1 .75-.75h16.5a.75.75 0 0 1 0 1.5H3.75A.75.75 0 0 1 3 6Zm9 12.094a.75.75 0 0 1 .75-.75h7.5a.75.75 0 1 1 0 1.5h-7.5a.75.75 0 0 1-.75-.75Zm-4.655-4.281a.75.75 0 0 1 1.06 0l1.875 1.875a.75.75 0 0 1 0 1.061l-1.875 1.875a.75.75 0 1 1-1.06-1.06l1.344-1.345-1.344-1.345a.75.75 0 0 1 0-1.06Z"/>
  <path d="M3.75 12.469a.75.75 0 0 1 .75.75 2.25 2.25 0 0 0 2.25 2.25h3a.75.75 0 1 1 0 1.5h-3A3.75 3.75 0 0 1 3 13.219a.75.75 0 0 1 .75-.75Z"/>
</svg>
