<svg width="24" height="24" viewBox="0 0 24 24" fill="none" xmlns="http://www.w3.org/2000/svg" fill="currentColor">
<path d="M12 2.25C12.4142 2.25 12.75 2.58579 12.75 3C12.75 5.18804 13.6192 7.28646 15.1664 8.83363C16.7135 10.3808 18.812 11.25 21 11.25C21.4142 11.25 21.75 11.5858 21.75 12C21.75 12.4142 21.4142 12.75 21 12.75C18.812 12.75 16.7135 13.6192 15.1664 15.1664C13.6192 16.7135 12.75 18.812 12.75 21C12.75 21.4142 12.4142 21.75 12 21.75C11.5858 21.75 11.25 21.4142 11.25 21C11.25 18.812 10.3808 16.7135 8.83363 15.1664C7.28646 13.6192 5.18804 12.75 3 12.75C2.58579 12.75 2.25 12.4142 2.25 12C2.25 11.5858 2.58579 11.25 3 11.25C5.18804 11.25 7.28646 10.3808 8.83363 8.83363C10.3808 7.28646 11.25 5.18804 11.25 3C11.25 2.58579 11.5858 2.25 12 2.25ZM12 6.75C11.5148 7.91448 10.8036 8.98495 9.89429 9.89429C8.98495 10.8036 7.91448 11.5148 6.75 12C7.91448 12.4852 8.98495 13.1964 9.89429 14.1057C10.8036 15.015 11.5148 16.0855 12 17.25C12.4852 16.0855 13.1964 15.015 14.1057 14.1057C15.015 13.1964 16.0855 12.4852 17.25 12C16.0855 11.5148 15.015 10.8036 14.1057 9.89429C13.1964 8.98495 12.4852 7.91448 12 6.75Z" fill="black"/>
</svg>
