<svg xmlns="http://www.w3.org/2000/svg" width="24" height="24" fill="currentColor" viewBox="0 0 24 24">
  <path d="M15 15.094a.75.75 0 0 1 .75.75v4.406A.75.75 0 0 1 15 21H9a.75.75 0 0 1-.75-.75v-4.406a.75.75 0 1 1 1.5 0V19.5h4.5v-3.656a.75.75 0 0 1 .75-.75ZM5.22 8.75a.75.75 0 0 1 1.06 1.062l-1.72 1.72h4.19a.75.75 0 0 1 0 1.5H4.56l1.72 1.719.027.028a.75.75 0 0 1-1.06 1.06l-.027-.027-3-3-.026-.027a.75.75 0 0 1 .026-1.034l3-3Zm12.5 0a.75.75 0 0 1 1.06 0l3 3a.75.75 0 0 1 .026 1.035l-.026.027-3 3-.028.026a.75.75 0 0 1-1.059-1.06l.027-.027 1.72-1.72h-4.19a.75.75 0 1 1 0-1.5h4.19l-1.72-1.72a.75.75 0 0 1 0-1.06ZM15 3a.75.75 0 0 1 .75.75v4.406a.75.75 0 0 1-1.5 0V4.5h-4.5v3.656a.75.75 0 0 1-1.5 0V3.75A.75.75 0 0 1 9 3h6Z"/>
</svg>
