<svg xmlns="http://www.w3.org/2000/svg" width="24" height="24" fill="currentColor" viewBox="0 0 24 24">
  <path fill-rule="evenodd" d="M20.25 4.5A2.25 2.25 0 0 0 18 2.25H6A2.25 2.25 0 0 0 3.75 4.5v15A2.25 2.25 0 0 0 6 21.75h12a2.25 2.25 0 0 0 2.25-2.25v-15ZM18 3.75a.75.75 0 0 1 .75.75v15a.75.75 0 0 1-.75.75H6a.75.75 0 0 1-.75-.75v-15A.75.75 0 0 1 6 3.75h12Z" clip-rule="evenodd"/>
  <path d="M8.606 6.207a.73.73 0 0 0 0 1.461h6.788a.73.73 0 1 0 0-1.461H8.606Zm0 4.063a.73.73 0 0 0 0 1.46h6.788a.73.73 0 0 0 0-1.46H8.606Zm0 4.048a.73.73 0 0 0 0 1.461h4.912a.73.73 0 1 0 0-1.461H8.606Z"/>
</svg>
