<svg xmlns="http://www.w3.org/2000/svg" width="24" height="24" fill="currentColor" viewBox="0 0 24 24">
  <path d="M6 5a1 1 0 0 0-1 1v1a1 1 0 0 1-2 0V6a3 3 0 0 1 3-3h2a1 1 0 0 1 0 2H6Zm9-1a1 1 0 0 1 1-1h2a3 3 0 0 1 3 3v1a1 1 0 1 1-2 0V6a1 1 0 0 0-1-1h-2a1 1 0 0 1-1-1ZM4 12a1 1 0 0 1 1-1h14a1 1 0 1 1 0 2H5a1 1 0 0 1-1-1Zm0 4a1 1 0 0 1 1 1v1a1 1 0 0 0 1 1h2a1 1 0 1 1 0 2H6a3 3 0 0 1-3-3v-1a1 1 0 0 1 1-1Zm16 0a1 1 0 0 1 1 1v1a3 3 0 0 1-3 3h-2a1 1 0 1 1 0-2h2a1 1 0 0 0 1-1v-1a1 1 0 0 1 1-1Z"/>
</svg>
