<svg width="24" height="24" viewBox="0 0 256 256" fill="none" xmlns="http://www.w3.org/2000/svg" fill="currentColor">
<g clip-path="url(#clip0_4339_79)">
<path fill-rule="evenodd" clip-rule="evenodd" d="M11.5929 3C12.0035 3 12.3363 3.33579 12.3363 3.75V5.53125H18.2832C18.5872 5.53125 18.8605 5.71796 18.9734 6.00271L21.9468 13.5027C21.982 13.5913 22 13.6858 22 13.7812C22 14.951 21.3229 15.7279 20.5626 16.1753C19.8241 16.6099 18.9459 16.7812 18.2832 16.7812C17.6205 16.7812 16.7423 16.6099 16.0038 16.1753C15.2435 15.7279 14.5664 14.951 14.5664 13.7812C14.5664 13.6858 14.5844 13.5913 14.6195 13.5027L17.1852 7.03125H12.3363V19.5H13.823C14.2336 19.5 14.5664 19.8358 14.5664 20.25C14.5664 20.6642 14.2336 21 13.823 21H9.36283C8.95228 21 8.61947 20.6642 8.61947 20.25C8.61947 19.8358 8.95228 19.5 9.36283 19.5H10.8496V7.03125H5.81479L8.38046 13.5027C8.41558 13.5913 8.43363 13.6858 8.43363 13.7812C8.43363 14.951 7.75649 15.7279 6.99621 16.1753C6.25771 16.6099 5.37952 16.7812 4.71681 16.7812C4.05411 16.7812 3.17592 16.6099 2.43742 16.1753C1.67713 15.7279 1 14.951 1 13.7812C1 13.6858 1.01805 13.5913 1.05317 13.5027L4.02662 6.00271C4.13951 5.71796 4.41285 5.53125 4.71681 5.53125C4.73234 5.53125 4.74779 5.53174 4.76314 5.5327C4.77855 5.53174 4.79408 5.53125 4.80973 5.53125H10.8496V3.75C10.8496 3.33579 11.1824 3 11.5929 3ZM4.71681 8.30069L2.49289 13.9101C2.53399 14.3305 2.77934 14.64 3.18648 14.8796C3.65594 15.1559 4.26447 15.2812 4.71681 15.2812C5.16915 15.2812 5.77769 15.1559 6.24715 14.8796C6.65429 14.64 6.89964 14.3305 6.94074 13.9101L4.71681 8.30069ZM18.2832 8.30069L16.0593 13.9101C16.1004 14.3305 16.3457 14.64 16.7528 14.8796C17.2223 15.1559 17.8308 15.2812 18.2832 15.2812C18.7355 15.2812 19.3441 15.1559 19.8135 14.8796C20.2207 14.64 20.466 14.3305 20.5071 13.9101L18.2832 8.30069Z" fill="black"/>
</g>
<defs>
<clipPath id="clip0_4339_79">
<rect width="24" height="24" fill="white"/>
</clipPath>
</defs>
</svg>
