<svg width="20" height="20" viewBox="0 0 24 24" fill="none" xmlns="http://www.w3.org/2000/svg" fill="currentColor">
<path d="M3.75 15V5C3.75 4.66848 3.88171 4.35056 4.11613 4.11613C4.35056 3.88171 4.66848 3.75 5 3.75H8.75C9.09518 3.75 9.375 4.02982 9.375 4.375C9.375 4.72018 9.09518 5 8.75 5H5V15H15V8.125C15 7.77982 15.2798 7.5 15.625 7.5C15.9702 7.5 16.25 7.77982 16.25 8.125V15C16.25 15.3315 16.1183 15.6494 15.8839 15.8839C15.6494 16.1183 15.3315 16.25 15 16.25H5C4.66848 16.25 4.35056 16.1183 4.11613 15.8839C3.88171 15.6494 3.75 15.3315 3.75 15ZM9.375 8.54164C9.37501 7.086 9.89 6.04186 10.7784 5.15343C11.677 4.25482 12.8958 3.75001 14.1666 3.75C14.5118 3.75 14.7916 4.02982 14.7916 4.375C14.7916 4.72018 14.5118 5 14.1666 5C13.2273 5.00001 12.3265 5.37311 11.6623 6.03729C10.9879 6.71165 10.625 7.44523 10.625 8.54164V11.1734L11.6154 10.183C11.8594 9.93898 12.2552 9.93897 12.4992 10.183C12.7433 10.4271 12.7433 10.8229 12.4992 11.067L10.5356 13.0305C10.4262 13.2119 10.2273 13.3334 10 13.3334C9.99569 13.3334 9.9914 13.3331 9.98711 13.333C9.8228 13.3364 9.6574 13.2756 9.53201 13.1503L7.44865 11.067C7.20458 10.8229 7.20458 10.4271 7.44865 10.183C7.69273 9.93895 8.08852 9.93895 8.3326 10.183L9.375 11.2254V8.54164Z" fill="#191C1D"/>
</svg>
