<svg xmlns="http://www.w3.org/2000/svg" width="24" height="24" fill="currentColor" viewBox="0 0 24 24">
  <path fill-rule="evenodd" d="M3.75 6.446v11.348a9.75 9.75 0 0 1 7.5 0V6.446a8.25 8.25 0 0 0-7.5 0Zm9 0v11.348a9.75 9.75 0 0 1 7.5 0V6.446a8.25 8.25 0 0 0-7.5 0ZM12 5.145a9.75 9.75 0 0 0-9.375.205.75.75 0 0 0-.375.65v13a.75.75 0 0 0 1.125.65 8.25 8.25 0 0 1 8.25 0 .75.75 0 0 0 .75 0 8.25 8.25 0 0 1 8.25 0A.75.75 0 0 0 21.75 19V6a.75.75 0 0 0-.375-.65A9.75 9.75 0 0 0 12 5.145Z" clip-rule="evenodd"/>
</svg>
