<svg xmlns="http://www.w3.org/2000/svg" width="24" height="24" fill="currentColor" viewBox="0 0 24 24">
  <path d="M4.443 12.01c0-2.182-.005-4.362 0-6.544.004-1.848 1.076-2.913 2.922-2.915 2.074 0 4.147-.018 6.22.018.335.007.747.173.987.404a193.555 193.555 0 0 1 4.475 4.472c.212.218.368.593.37.897.025 3.46.024 6.922.011 10.383-.004 1.598-1.125 2.712-2.736 2.718-3.191.014-6.382.014-9.572 0-1.526-.006-2.659-1.137-2.673-2.673-.02-2.253-.004-4.506-.006-6.758l.002-.002Zm13.56-3.115c-.119-.036-.151-.056-.184-.056-.973-.005-1.946 0-2.919-.012-.97-.013-1.636-.607-1.729-1.574-.044-.447-.02-.9-.022-1.35-.004-.621 0-1.243 0-1.882-.246-.012-.406-.028-.566-.028-1.747-.001-3.496-.004-5.243 0-1.031.004-1.466.45-1.466 1.493v13.028c0 1.037.435 1.487 1.472 1.49 3.063.006 6.127.006 9.19 0 1.039-.002 1.468-.444 1.47-1.485.002-3.045 0-6.091 0-9.136v-.486l-.003-.002Zm-3.392-3.778c0 .703-.014 1.342.013 1.978.005.108.183.292.288.297.65.027 1.301.014 1.966.014l-2.267-2.29v.001Z"/>
  <path d="M13.29 16.697c-.031.121-.055.22-.084.318a.104.104 0 0 1-.055.056c-.435.166-.866.343-1.35.303-.392-.03-.772-.275-.852-.62a1.24 1.24 0 0 1-.002-.55c.104-.457.346-1.963.462-2.416a4.3 4.3 0 0 0 .133-.69c.028-.292-.12-.434-.415-.416-.178.01-.354.059-.541.091.024-.096.048-.202.077-.308.007-.024.03-.053.053-.06.435-.154.86-.335 1.34-.306.402.025.775.272.833.631.038.226.02.473-.03.697-.126.534-.387 2.113-.528 2.642-.03.114-.039.236-.042.354-.007.205.082.313.287.352.216.043.426.018.633-.056l.082-.026-.001.004Zm0-6.008a.709.709 0 0 1-.389.648.855.855 0 0 1-1-.107.69.69 0 0 1 .045-1.075c.473-.366 1.19-.152 1.323.394.012.05.015.106.02.138v.002Z"/>
</svg>
