<svg width="24" height="24" viewBox="0 0 24 24" fill="none" xmlns="http://www.w3.org/2000/svg" fill="currentColor">
<path d="M22.2806 9.46938L17.0306 4.21938C16.9609 4.14975 16.8782 4.09454 16.7871 4.0569C16.6961 4.01926 16.5985 3.99992 16.5 4H3.5C3.10218 4 2.72064 4.15804 2.43934 4.43934C2.15804 4.72064 2 5.10218 2 5.5V18C2 18.3978 2.15804 18.7794 2.43934 19.0607C2.72064 19.342 3.10218 19.5 3.5 19.5H21C21.3978 19.5 21.7794 19.342 22.0607 19.0607C22.342 18.7794 22.5 18.3978 22.5 18V10C22.5001 9.90148 22.4807 9.80391 22.4431 9.71286C22.4055 9.62182 22.3503 9.53908 22.2806 9.46938ZM17.25 6.56031L19.9397 9.25H17.25V6.56031ZM21 18H3.5V5.5H15.75V10C15.75 10.1989 15.829 10.3897 15.9697 10.5303C16.1103 10.671 16.3011 10.75 16.5 10.75H21V18Z" fill="black"/>
</svg>
