<svg xmlns="http://www.w3.org/2000/svg" width="24" height="24" fill="currentColor" viewBox="0 0 24 24">
  <path d="M6.859 3.538a1.282 1.282 0 0 0-1.282 1.283V12a.77.77 0 0 1-1.539 0V4.82A2.82 2.82 0 0 1 6.86 2h7.18c.204 0 .4.081.543.225l5.129 5.129a.77.77 0 0 1 .225.543V12a.77.77 0 0 1-1.539 0V8.667h-3.333a1.795 1.795 0 0 1-1.795-1.795V3.538H6.86Zm7.949 1.088v2.246a.256.256 0 0 0 .256.256h2.246l-2.502-2.502Zm-10.77 10.45a.77.77 0 0 1 .77-.768h1.538a2.308 2.308 0 1 1 0 4.615h-.77v2.308a.77.77 0 0 1-1.538 0v-6.154Zm1.539 2.309h.77a.769.769 0 1 0 0-1.539h-.77v1.539Zm4.615-2.308a.77.77 0 0 1 .77-.77h1.025a2.82 2.82 0 0 1 2.82 2.821v2.052a2.82 2.82 0 0 1-2.82 2.82h-1.026a.77.77 0 0 1-.769-.77v-6.153Zm1.539.77v4.615h.256a1.282 1.282 0 0 0 1.282-1.282v-2.052a1.282 1.282 0 0 0-1.282-1.282h-.256Zm4.615-.77a.77.77 0 0 1 .77-.77h3.076a.77.77 0 0 1 0 1.54h-2.307v1.538h1.282a.77.77 0 0 1 0 1.538h-1.282v2.308a.77.77 0 0 1-1.539 0v-6.154Z"/>
  <path d="m10.98 7.395.785.254.015.004a.31.31 0 0 1 0 .585l-.784.254A1.62 1.62 0 0 0 9.97 9.517l-.256.784a.31.31 0 0 1-.584 0l-.254-.784A1.62 1.62 0 0 0 7.85 8.489l-.785-.255a.31.31 0 0 1 0-.585l.785-.254A1.62 1.62 0 0 0 8.86 6.37l.253-.783a.31.31 0 0 1 .585 0l.256.783a1.62 1.62 0 0 0 1.024 1.025Z"/>
</svg>
