<svg xmlns="http://www.w3.org/2000/svg" width="24" height="24" fill="currentColor" viewBox="0 0 24 24">
  <path d="M3.405 17.846a.75.75 0 0 1 .75.75v2.583h1.25l.077.004a.751.751 0 0 1 0 1.492l-.077.004H4.072a1.42 1.42 0 0 1-1.418-1.416v-2.667a.75.75 0 0 1 .751-.75Zm8.666 3.333a.75.75 0 0 1 0 1.5H8.738a.75.75 0 0 1 0-1.5h3.333ZM16 13.25a.75.75 0 0 1 0 1.5h-4a.75.75 0 0 1 0-1.5h4Zm0-3a.75.75 0 0 1 0 1.5h-4a.75.75 0 0 1 0-1.5h4Z"/>
  <path fill-rule="evenodd" d="M16.005 1.325a.752.752 0 0 1 .066.01h.004l.015.005a.75.75 0 0 1 .117.036l.033.015a.738.738 0 0 1 .083.045c.012.007.025.014.036.022a.753.753 0 0 1 .1.083l4.666 4.667.01.012a.761.761 0 0 1 .065.08l.022.027a.77.77 0 0 1 .047.09c.007.013.015.025.02.038a.746.746 0 0 1 .057.283l-.001 10.666a1.417 1.417 0 0 1-1.416 1.417h-2.44v2.44a1.418 1.418 0 0 1-1.417 1.418h-.667a.75.75 0 0 1 0-1.5h.583V18.82h-8.06a1.418 1.418 0 0 1-1.416-1.417V6.534a.745.745 0 0 1-.364.14l-.076.005H4.155v1.917a.75.75 0 0 1-1.5 0v-2a1.418 1.418 0 0 1 1.417-1.417h2l.076.004c.135.013.26.064.364.14V2.737A1.418 1.418 0 0 1 7.929 1.32h8l.076.004ZM8.012 17.321h11.833V7.488h-3.916a.75.75 0 0 1-.75-.75V2.821H8.012v14.5Zm8.667-11.333h2.106L16.68 3.882v2.106Z" clip-rule="evenodd"/>
  <path d="M3.405 11.179a.75.75 0 0 1 .75.75v3.333a.75.75 0 0 1-1.5 0v-3.333a.75.75 0 0 1 .75-.75Z"/>
</svg>
