<svg xmlns="http://www.w3.org/2000/svg" width="24" height="24" fill="currentColor" viewBox="0 0 24 24">
  <path d="M8.502 5.1a4.183 4.183 0 0 1 2.496 1.184L8.245 9.037a1.722 1.722 0 0 0 0 2.435l.535.534a2.479 2.479 0 0 0 3.504 0l.984-.984a2.393 2.393 0 0 1 3.385 0l1.726 1.726-1.424 1.41-1.472-1.473a.738.738 0 0 0-1.044 1.044l1.467 1.467-1.423 1.41-1.46-1.46a.738.738 0 1 0-1.045 1.043l1.456 1.456-1.426 1.412-6.861-6.796-.005-.005A4.182 4.182 0 0 1 8.502 5.1Zm3.97 1.798a.737.737 0 0 0 .126-.13 4.182 4.182 0 0 1 6.782 4.894l-1.683-1.684a3.87 3.87 0 0 0-5.473 0l-.984.985c-.39.39-1.026.39-1.416 0l-.535-.535a.246.246 0 0 1 0-.348l3.183-3.182Zm7.377 6.47a.77.77 0 0 0 .058-.05 5.658 5.658 0 0 0-7.896-8.109 5.658 5.658 0 1 0-7.899 8.105l7.377 7.306a.738.738 0 0 0 1.039 0l7.321-7.252Z"/>
</svg>
