<svg xmlns="http://www.w3.org/2000/svg" width="24" height="24" fill="currentColor" viewBox="0 0 24 24">
  <path d="M3.75 15.094a.75.75 0 0 1 .75.75V19.5h3a.75.75 0 0 1 0 1.5H3.75a.75.75 0 0 1-.75-.75v-4.406a.75.75 0 0 1 .75-.75Zm16.5 0a.75.75 0 0 1 .75.75v4.406a.75.75 0 0 1-.75.75H16.5a.75.75 0 0 1 0-1.5h3v-3.656a.75.75 0 0 1 .75-.75ZM6.22 8.75a.75.75 0 0 1 1.06 0l3 3a.75.75 0 0 1 .026 1.035l-.026.027-3 3-.028.026a.75.75 0 0 1-1.059-1.06l.027-.027 1.72-1.72H3.75a.75.75 0 1 1 0-1.5h4.19l-1.72-1.72a.75.75 0 0 1 0-1.06Zm10.5 0a.75.75 0 0 1 1.06 1.062l-1.72 1.72h4.19a.75.75 0 0 1 0 1.5h-4.19l1.72 1.719.027.028a.75.75 0 0 1-1.06 1.06l-.027-.027-3-3-.026-.027a.75.75 0 0 1 .026-1.034l3-3ZM7.5 3a.75.75 0 0 1 0 1.5h-3v3.656a.75.75 0 0 1-1.5 0V3.75A.75.75 0 0 1 3.75 3H7.5Zm12.75 0a.75.75 0 0 1 .75.75v4.406a.75.75 0 0 1-1.5 0V4.5h-3a.75.75 0 0 1 0-1.5h3.75Z"/>
</svg>
