<svg xmlns="http://www.w3.org/2000/svg" width="24" height="24" fill="currentColor" viewBox="0 0 24 24">
  <path d="M2.25 8A.75.75 0 0 1 3 7.25h2a2.75 2.75 0 1 1 0 5.5H3.75V16a.75.75 0 0 1-1.5 0V8Zm1.5 3.25H5a1.25 1.25 0 0 0 0-2.5H3.75v2.5ZM9.25 8a.75.75 0 0 1 .75-.75h2A2.75 2.75 0 0 1 14.75 10v4A2.75 2.75 0 0 1 12 16.75h-2a.75.75 0 0 1-.75-.75V8Zm1.5.75v6.5H12A1.25 1.25 0 0 0 13.25 14v-4A1.25 1.25 0 0 0 12 8.75h-1.25Zm5.5-.75a.75.75 0 0 1 .75-.75h4a.75.75 0 0 1 0 1.5h-3.25v2.5H20a.75.75 0 0 1 0 1.5h-2.25V16a.75.75 0 0 1-1.5 0V8Z"/>
</svg>
