<svg width="24" height="24" viewBox="0 0 256 256" fill="none" xmlns="http://www.w3.org/2000/svg" fill="currentColor">
<path fill-rule="evenodd" clip-rule="evenodd" d="M3 5.75C3 5.33579 3.33579 5 3.75 5H20.25C20.6642 5 21 5.33579 21 5.75C21 6.16421 20.6642 6.5 20.25 6.5H3.75C3.33579 6.5 3 6.16421 3 5.75ZM3 12C3 11.4477 3.44772 11 4 11H20C20.5523 11 21 11.4477 21 12C21 12.5523 20.5523 13 20 13H4C3.44772 13 3 12.5523 3 12ZM4.375 16.75C3.61561 16.75 3 17.3656 3 18.125C3 18.8844 3.61561 19.5 4.375 19.5H19.625C20.3844 19.5 21 18.8844 21 18.125C21 17.3656 20.3844 16.75 19.625 16.75H4.375Z" fill="black"/>
</svg>
