<svg xmlns="http://www.w3.org/2000/svg" width="24" height="24" fill="currentColor" viewBox="0 0 24 24">
  <path d="M18.58 19.34H6.525c-2.915 0-5.325-2.41-5.325-5.224 0-2.713 2.11-4.923 4.822-5.224.603-1.809 2.11-3.215 4.019-3.818 2.21-.603 4.52-.2 6.229 1.105 1.507 1.206 2.21 2.914 2.21 4.621h.1c2.311 0 4.22 1.91 4.22 4.22 0 2.411-1.909 4.32-4.22 4.32ZM6.726 17.833H18.58a2.701 2.701 0 0 0 2.713-2.712 2.701 2.701 0 0 0-2.713-2.713h-1.004c-.201 0-.402-.1-.603-.301-.1-.201-.201-.402-.1-.603.3-1.507-.201-3.014-1.508-4.019a5.45 5.45 0 0 0-4.822-.904c-1.607.402-2.813 1.708-3.215 3.114 0 .402-.301.603-.703.603-2.21 0-3.918 1.708-3.918 3.717 0 2.11 1.808 3.818 4.019 3.818Z"/>
</svg>
