<svg xmlns="http://www.w3.org/2000/svg" width="24" height="24" fill="currentColor" viewBox="0 0 24 24">
  <path d="M14.625 7.313a.562.562 0 1 0 0 1.125H18a.562.562 0 1 0 0-1.126h-3.375Zm0 4.125a.562.562 0 1 0 0 1.124H18a.562.562 0 1 0 0-1.124h-3.375ZM5.438 7.875c0-.31.251-.563.562-.563h3.375a.563.563 0 0 1 0 1.125H6a.563.563 0 0 1-.563-.562Zm0 4.125c0-.31.251-.563.562-.563h3.375a.562.562 0 1 1 0 1.126H6A.562.562 0 0 1 5.437 12Zm0 4.125c0-.31.251-.563.562-.563h3.375a.562.562 0 1 1 0 1.126H6a.562.562 0 0 1-.563-.563Z"/>
  <path fill-rule="evenodd" d="M19.5 3.75A2.25 2.25 0 0 1 21.75 6v12a2.25 2.25 0 0 1-2.25 2.25h-15A2.25 2.25 0 0 1 2.25 18V6A2.25 2.25 0 0 1 4.5 3.75h15Zm-6.938 1.5H19.5a.75.75 0 0 1 .75.75v12a.75.75 0 0 1-.75.75h-6.938V5.25Zm-1.124 13.5H4.5a.75.75 0 0 1-.75-.75V6a.75.75 0 0 1 .75-.75h6.938v13.5Z" clip-rule="evenodd"/>
</svg>
