<svg xmlns="http://www.w3.org/2000/svg" width="24" height="24" fill="currentColor" viewBox="0 0 24 24">
  <path d="M4.5 16.5a.75.75 0 0 1 .75.75v3h1.5a.75.75 0 0 1 0 1.5h-1.5a1.5 1.5 0 0 1-1.5-1.5v-3a.75.75 0 0 1 .75-.75Zm9.75 3.75a.75.75 0 0 1 0 1.5H10.5a.75.75 0 0 1 0-1.5h3.75Zm5.25-4.5a.75.75 0 0 1 .75.75v3.75a1.5 1.5 0 0 1-1.5 1.5H18a.75.75 0 0 1 0-1.5h.75V16.5a.75.75 0 0 1 .75-.75ZM15 15a.75.75 0 0 1 0 1.5H9A.75.75 0 0 1 9 15h6ZM4.5 9a.75.75 0 0 1 .75.75v3.75a.75.75 0 0 1-1.5 0V9.75A.75.75 0 0 1 4.5 9ZM15 12a.75.75 0 0 1 0 1.5H9A.75.75 0 0 1 9 12h6Z"/>
  <path fill-rule="evenodd" d="M14.25 2.25c.048 0 .095.005.14.014h.01c.014.004.027.01.041.013.034.01.067.017.098.03.03.013.057.03.084.046.015.008.03.015.044.024.04.027.079.058.113.093l5.25 5.25c.136.135.22.323.22.53v4.5a.75.75 0 0 1-1.5 0V9h-4.5a.75.75 0 0 1-.75-.75v-4.5h-2.25a.75.75 0 0 1 0-1.5h3ZM15 7.5h2.69L15 4.81V7.5Z" clip-rule="evenodd"/>
  <path d="M12 9a.75.75 0 0 1 0 1.5H9A.75.75 0 0 1 9 9h3ZM7.5 2.25a.75.75 0 0 1 0 1.5H5.25V6a.75.75 0 0 1-1.5 0V3.75a1.5 1.5 0 0 1 1.5-1.5H7.5Z"/>
</svg>
