<svg xmlns="http://www.w3.org/2000/svg" width="24" height="24" fill="currentColor" viewBox="0 0 24 24">
  <path d="M12.68 2.424a.74.74 0 0 0-.296-.016 9.602 9.602 0 0 0-.708-.002.74.74 0 0 0-.25.011 9.598 9.598 0 0 0-8.295 13.257 9.6 9.6 0 0 0 8.295 5.909.738.738 0 0 0 .25.011c.108.004.216.006.324.006a.738.738 0 0 0 0-1.477 16 16 0 0 1-1.783-4.43H12a.739.739 0 0 0 0-1.478H9.939a16 16 0 0 1 0-4.43h4.135c.095.733.141 1.474.141 2.215a.738.738 0 0 0 1.477 0c0-.74-.043-1.48-.13-2.215h4.253c.203.716.308 1.462.308 2.215a.739.739 0 0 0 1.477 0 9.6 9.6 0 0 0-8.92-9.576Zm6.555 5.884h-3.911a17 17 0 0 0-1.45-4.212 8.124 8.124 0 0 1 5.361 4.212Zm-5.422 0h-3.596A16 16 0 0 1 12 3.877h.076a15.364 15.364 0 0 1 1.737 4.43Zm-5.11 0H4.764a8.123 8.123 0 0 1 5.442-4.23 17.476 17.476 0 0 0-1.505 4.23ZM4.184 9.785h4.264a17.476 17.476 0 0 0 0 4.43H4.185a8.123 8.123 0 0 1 0-4.43Zm4.517 5.907a17.477 17.477 0 0 0 1.505 4.23 8.123 8.123 0 0 1-5.442-4.23h3.937Zm8.683-2.245a.739.739 0 0 1 1.045 0l2.954 2.954a.738.738 0 1 1-1.045 1.044l-1.693-1.693v5.11a.738.738 0 1 1-1.477 0v-5.11l-1.693 1.693a.738.738 0 1 1-1.044-1.044l2.953-2.954Z"/>
</svg>
