<svg xmlns="http://www.w3.org/2000/svg" width="24" height="24" fill="currentColor" viewBox="0 0 24 24">
  <path d="M21.146 8.209a1.5 1.5 0 0 1 .537 1.653l-3 10.081-.005.016A1.494 1.494 0 0 1 17.25 21H6.75a1.494 1.494 0 0 1-1.425-1.04l-.006-.017-3-10.081a1.5 1.5 0 0 1 .535-1.653l8.26-6.417a1.494 1.494 0 0 1 1.773 0l8.26 6.417Zm-1.775 4.158.873-2.94.006-.017-1.497-1.164a.785.785 0 0 1-.033.035L7.5 19.5h4.689l7-7a.748.748 0 0 1 .18-.133ZM6.435 18.443 17.56 7.32l-2.754-2.14a.754.754 0 0 1-.085.102l-9.404 9.404 1.12 3.758ZM4.83 13.05l8.79-8.791L12 3 3.744 9.412l.006.016 1.079 3.622Zm13.664 2.27-4.18 4.18h2.937l1.243-4.18Z"/>
</svg>
