<svg xmlns="http://www.w3.org/2000/svg" width="24" height="24" fill="currentColor" viewBox="0 0 24 24">
  <path d="M1.716 22.533A2.005 2.005 0 0 0 3 23h3.45v-1.2H3a.794.794 0 0 1-.306-.06l-.307-.127-.127-.307A.794.794 0 0 1 2.2 21v-3.45H1V21a1.994 1.994 0 0 0 .716 1.533ZM15.45 21.8V23h-6.9v-1.2h6.9ZM21.8 8.55H23v6.9h-1.2v-6.9ZM8.55 2.2V1h6.9v1.2h-6.9ZM2.2 6.45H1V3a1.994 1.994 0 0 1 1.234-1.848C2.47 1.054 2.73 1 3 1h3.45v1.2H3a.794.794 0 0 0-.306.06l-.307.127-.127.307A.794.794 0 0 0 2.2 3v3.45Zm0 2.1H1v6.9h1.2v-6.9ZM17.55 1v1.2H21c.11 0 .213.022.306.06l.307.127.127.307c.038.093.06.195.06.306v3.45H23V3a1.994 1.994 0 0 0-1.234-1.848A1.994 1.994 0 0 0 21 1h-3.45ZM23 17.55h-1.2V21c0 .11-.022.213-.06.306l-.127.307-.307.127a.795.795 0 0 1-.306.06h-3.45V23H21a1.994 1.994 0 0 0 1.848-1.234c.098-.236.152-.495.152-.766v-3.45ZM6 7.034c0-.295.257-.534.575-.534h10.85c.318 0 .575.24.575.534V8.44c0 .295-.257.534-.575.534-.317 0-.575-.239-.575-.534v-.87h-4.18v9.649h1.476c.296 0 .536.287.536.64 0 .355-.24.642-.536.642H9.854c-.296 0-.536-.287-.536-.641 0-.354.24-.641.536-.641h1.475v-9.65H7.15v.87c0 .296-.257.535-.574.535-.318 0-.575-.239-.575-.534V7.034Z"/>
</svg>
