<svg width="24" height="24" viewBox="0 0 256 256" fill="none" xmlns="http://www.w3.org/2000/svg" fill="currentColor">
<path fill-rule="evenodd" clip-rule="evenodd" d="M15.8917 6.66368C15.3517 6.63097 14.8112 6.71792 14.3087 6.91833C13.9661 7.05498 13.5775 6.88801 13.4409 6.5454C13.3042 6.20278 13.4712 5.81426 13.8138 5.67761C14.499 5.40432 15.2361 5.28575 15.9725 5.33037C16.7088 5.37498 17.4262 5.58169 18.0734 5.93571C18.7206 6.28973 19.2816 6.78233 19.7164 7.37831C20.1511 7.97429 20.4488 8.65894 20.5883 9.38333C20.7278 10.1077 20.7055 10.854 20.5231 11.5688C20.3407 12.2836 20.0027 12.9492 19.5332 13.5182C19.2205 13.8972 18.8547 14.227 18.4481 14.4981C18.8069 14.6304 19.1568 14.7886 19.4951 14.972C20.6686 15.6083 21.6644 16.5278 22.392 17.6469C22.593 17.9561 22.5053 18.3698 22.1961 18.5709C21.8869 18.7719 21.4732 18.6842 21.2721 18.375C20.6658 17.4425 19.8361 16.6764 18.8584 16.1463C17.8808 15.6162 16.7863 15.3388 15.6742 15.3394M15.6742 15.3394C15.3054 15.3396 15.0057 15.0408 15.0055 14.672C15.0052 14.3032 15.3039 14.004 15.6728 14.0036C16.2137 14.0032 16.7479 13.8832 17.2372 13.6523C17.7264 13.4215 18.1586 13.0854 18.5029 12.6681C18.8472 12.2509 19.0951 11.7627 19.2288 11.2385C19.3626 10.7143 19.3789 10.1671 19.2766 9.63585C19.1743 9.10464 18.956 8.60256 18.6372 8.16551C18.3184 7.72846 17.907 7.36722 17.4324 7.1076C16.9578 6.84799 16.4317 6.6964 15.8917 6.66368M8.32666 6.65696C6.29792 6.65696 4.65331 8.30157 4.65331 10.3303C4.65331 12.3274 6.24709 13.9523 8.23214 14.0025C8.26363 14.0021 8.29514 14.0019 8.32666 14.0019C8.35818 14.0019 8.38968 14.0021 8.42118 14.0025C10.4062 13.9523 12 12.3274 12 10.3303C12 8.30157 10.3554 6.65696 8.32666 6.65696ZM11.105 14.4989C12.45 13.6007 13.3358 12.0689 13.3358 10.3303C13.3358 7.56385 11.0931 5.3212 8.32666 5.3212C5.5602 5.3212 3.31755 7.56385 3.31755 10.3303C3.31755 12.0689 4.20335 13.6007 5.54828 14.4989C5.19077 14.631 4.84202 14.7889 4.50486 14.9718C3.33157 15.6083 2.33585 16.5278 1.60808 17.6468C1.40697 17.956 1.49461 18.3697 1.80382 18.5708C2.11303 18.7719 2.52673 18.6843 2.72784 18.3751C3.33431 17.4426 4.16408 16.6764 5.14182 16.1459C6.09005 15.6315 7.14832 15.3547 8.22598 15.3384C8.25946 15.3391 8.29302 15.3394 8.32666 15.3394C8.36029 15.3394 8.39385 15.3391 8.42733 15.3384C9.50499 15.3547 10.5633 15.6315 11.5115 16.1459C12.4892 16.6764 13.319 17.4426 13.9255 18.3751C14.1266 18.6843 14.5403 18.7719 14.8495 18.5708C15.1587 18.3697 15.2463 17.956 15.0452 17.6468C14.3175 16.5278 13.3217 15.6083 12.1485 14.9718C11.8113 14.7889 11.4625 14.631 11.105 14.4989Z" fill="black"/>
</svg>
