<svg width="24" height="24" viewBox="0 0 256 256" fill="none" xmlns="http://www.w3.org/2000/svg" fill="currentColor">
<path d="M18 3.25C18.4142 3.25 18.75 3.58579 18.75 4C18.75 4.33152 18.8817 4.64946 19.1161 4.88388C19.3505 5.1183 19.6685 5.25 20 5.25C20.4142 5.25 20.75 5.58579 20.75 6C20.75 6.41421 20.4142 6.75 20 6.75C19.6685 6.75 19.3505 6.8817 19.1161 7.11612C18.8817 7.35054 18.75 7.66848 18.75 8C18.75 8.41421 18.4142 8.75 18 8.75C17.5858 8.75 17.25 8.41421 17.25 8C17.25 7.66848 17.1183 7.35054 16.8839 7.11612C16.6495 6.8817 16.3315 6.75 16 6.75C15.5858 6.75 15.25 6.41421 15.25 6C15.25 5.58579 15.5858 5.25 16 5.25C16.3315 5.25 16.6495 5.1183 16.8839 4.88388C17.1183 4.64946 17.25 4.33152 17.25 4C17.25 3.58579 17.5858 3.25 18 3.25ZM18 5.88746C17.9818 5.90673 17.9633 5.92576 17.9445 5.94454C17.9258 5.96333 17.9067 5.98182 17.8875 6C17.9067 6.01819 17.9258 6.03667 17.9445 6.05546C17.9633 6.07424 17.9818 6.09327 18 6.11254C18.0182 6.09327 18.0367 6.07424 18.0555 6.05546C18.0742 6.03667 18.0933 6.01819 18.1125 6C18.0933 5.98182 18.0742 5.96333 18.0555 5.94454C18.0367 5.92576 18.0182 5.90673 18 5.88746ZM9 5.25C9.41421 5.25 9.75 5.58579 9.75 6C9.75 7.39239 10.3031 8.72774 11.2877 9.71231C12.2723 10.6969 13.6076 11.25 15 11.25C15.4142 11.25 15.75 11.5858 15.75 12C15.75 12.4142 15.4142 12.75 15 12.75C13.6076 12.75 12.2723 13.3031 11.2877 14.2877C10.3031 15.2723 9.75 16.6076 9.75 18C9.75 18.4142 9.41421 18.75 9 18.75C8.58579 18.75 8.25 18.4142 8.25 18C8.25 16.6076 7.69688 15.2723 6.71231 14.2877C5.72774 13.3031 4.39239 12.75 3 12.75C2.58579 12.75 2.25 12.4142 2.25 12C2.25 11.5858 2.58579 11.25 3 11.25C4.39239 11.25 5.72774 10.6969 6.71231 9.71231C7.69688 8.72774 8.25 7.39239 8.25 6C8.25 5.58579 8.58579 5.25 9 5.25ZM9 9.09234C8.68321 9.70704 8.27103 10.2749 7.77297 10.773C7.27491 11.271 6.70704 11.6832 6.09234 12C6.70704 12.3168 7.27491 12.729 7.77297 13.227C8.27103 13.7251 8.68321 14.293 9 14.9077C9.31679 14.293 9.72897 13.7251 10.227 13.227C10.7251 12.729 11.293 12.3168 11.9077 12C11.293 11.6832 10.7251 11.271 10.227 10.773C9.72897 10.2749 9.31679 9.70704 9 9.09234ZM18 15.25C18.4142 15.25 18.75 15.5858 18.75 16C18.75 16.3315 18.8817 16.6495 19.1161 16.8839C19.3505 17.1183 19.6685 17.25 20 17.25C20.4142 17.25 20.75 17.5858 20.75 18C20.75 18.4142 20.4142 18.75 20 18.75C19.6685 18.75 19.3505 18.8817 19.1161 19.1161C18.8817 19.3505 18.75 19.6685 18.75 20C18.75 20.4142 18.4142 20.75 18 20.75C17.5858 20.75 17.25 20.4142 17.25 20C17.25 19.6685 17.1183 19.3505 16.8839 19.1161C16.6495 18.8817 16.3315 18.75 16 18.75C15.5858 18.75 15.25 18.4142 15.25 18C15.25 17.5858 15.5858 17.25 16 17.25C16.3315 17.25 16.6495 17.1183 16.8839 16.8839C17.1183 16.6495 17.25 16.3315 17.25 16C17.25 15.5858 17.5858 15.25 18 15.25ZM18 17.8875C17.9818 17.9067 17.9633 17.9258 17.9445 17.9445C17.9258 17.9633 17.9067 17.9818 17.8875 18C17.9067 18.0182 17.9258 18.0367 17.9445 18.0555C17.9633 18.0742 17.9818 18.0933 18 18.1125C18.0182 18.0933 18.0367 18.0742 18.0555 18.0555C18.0742 18.0367 18.0933 18.0182 18.1125 18C18.0933 17.9818 18.0742 17.9633 18.0555 17.9445C18.0367 17.9258 18.0182 17.9067 18 17.8875Z" fill="black"/>
</svg>
