<svg xmlns="http://www.w3.org/2000/svg" width="24" height="24" fill="currentColor" viewBox="0 0 24 24">
  <path d="M10 3.75h4a.25.25 0 0 1 .25.25v2.25h-4.5V4a.25.25 0 0 1 .25-.25Zm5.75 2.5V4A1.75 1.75 0 0 0 14 2.25h-4A1.75 1.75 0 0 0 8.25 4v2.25H5.009a.7.7 0 0 0-.016 0H4a.75.75 0 0 0 0 1.5h.31l.94 11.284A2.75 2.75 0 0 0 8 21.75h8a2.75 2.75 0 0 0 2.75-2.716l.94-11.284H20a.75.75 0 0 0 0-1.5h-4.25Zm-9.935 1.5h12.37l-.932 11.188a.761.761 0 0 0-.003.062A1.25 1.25 0 0 1 16 20.25H8A1.25 1.25 0 0 1 6.75 19c0-.02 0-.042-.003-.062L5.815 7.75ZM10 10.25a.75.75 0 0 1 .75.75v6a.75.75 0 0 1-1.5 0v-6a.75.75 0 0 1 .75-.75Zm4 0a.75.75 0 0 1 .75.75v6a.75.75 0 0 1-1.5 0v-6a.75.75 0 0 1 .75-.75Z"/>
</svg>
