<svg xmlns="http://www.w3.org/2000/svg" width="24" height="24" fill="currentColor" viewBox="0 0 24 24">
  <path fill-rule="evenodd" d="M15.892 6.664a3.673 3.673 0 0 0-1.583.254.668.668 0 0 1-.495-1.24 5.01 5.01 0 0 1 4.634 8.82 8.014 8.014 0 0 1 3.944 3.149.668.668 0 0 1-1.12.728 6.673 6.673 0 0 0-5.598-3.036m0 0a.668.668 0 0 1-.001-1.335 3.672 3.672 0 0 0 .219-7.34m-7.565-.007a3.673 3.673 0 1 0 0 7.347 3.673 3.673 0 0 0 0-7.347Zm2.778 7.842a5.01 5.01 0 1 0-5.557 0 8.012 8.012 0 0 0-3.94 3.148.668.668 0 0 0 1.12.728 6.68 6.68 0 0 1 11.197 0 .668.668 0 0 0 1.12-.728 8.014 8.014 0 0 0-3.94-3.148Z" clip-rule="evenodd"/>
</svg>
