<svg xmlns="http://www.w3.org/2000/svg" width="24" height="24" fill="currentColor" viewBox="0 0 24 24">
  <path fill-rule="evenodd" d="M6.857 3.463A1.337 1.337 0 0 0 5.52 4.8v14.4a1.337 1.337 0 0 0 1.337 1.337h10.286A1.337 1.337 0 0 0 18.48 19.2V8.606h-3.395a1.749 1.749 0 0 1-1.748-1.749V3.463h-6.48Zm7.92 1.018 2.685 2.685h-2.377a.308.308 0 0 1-.308-.309V4.481ZM4.893 2.836a2.777 2.777 0 0 1 1.964-.813h7.2a.72.72 0 0 1 .51.21l5.142 5.144a.72.72 0 0 1 .21.509V19.2a2.777 2.777 0 0 1-2.776 2.777H6.857A2.777 2.777 0 0 1 4.08 19.2V4.8c0-.737.292-1.443.813-1.964Zm10.702 9.684a.72.72 0 0 1 0 1.018l-4.115 4.114a.72.72 0 0 1-1.018 0l-2.057-2.057a.72.72 0 1 1 1.018-1.018l1.548 1.548 3.605-3.605a.72.72 0 0 1 1.019 0Z" clip-rule="evenodd"/>
</svg>
