<svg xmlns="http://www.w3.org/2000/svg" width="24" height="24" fill="currentColor" viewBox="0 0 24 24">
  <path d="M14.759 13.29c0 .21-.05.401-.12.542-.08.13-.191.23-.321.23H7.103c-.13 0-.241-.1-.322-.23a1.24 1.24 0 0 1-.12-.542c0-.21.05-.402.12-.542.08-.14.191-.24.322-.24h7.215c.13 0 .24.1.32.24.07.14.121.331.121.542Zm-3.954-3.542c0 .21-.04.4-.12.541-.08.14-.19.241-.321.241H7.103c-.13 0-.241-.1-.322-.24a1.243 1.243 0 0 1-.12-.542c0-.211.05-.402.12-.542.08-.13.191-.231.322-.231h3.26c.131 0 .242.1.322.23.08.141.12.342.12.543Z"/>
  <path d="m18.602 4.6-2.177-2.188A2.13 2.13 0 0 0 14.94 1.8H6.45A2.955 2.955 0 0 0 3.5 4.75v14.3A2.955 2.955 0 0 0 6.45 22h4.265a.68.68 0 0 0 .672-.552l.02-.14a.694.694 0 0 0-.692-.693H6.45a1.567 1.567 0 0 1-1.565-1.565V4.75c0-.863.702-1.565 1.565-1.565h6.904v2.097a2.394 2.394 0 0 0 2.388 2.388h2.088v4.857c0 .382.31.693.692.693a.702.702 0 0 0 .703-.693V6.085a2.12 2.12 0 0 0-.623-1.485Zm-.772 1.676h-2.088a.99.99 0 0 1-.993-.994V3.185h.19l.141.02c.13.02.261.09.361.19l2.178 2.178c.14.14.21.331.21.512v.19Z"/>
  <path d="M20.148 14.655h-.01l-.12-.13-.141-.131a1.85 1.85 0 0 0-2.479.13l-4.224 4.225s-.09.1-.12.15a.342.342 0 0 0-.071.1c0 .01-.01.03-.02.04-.01.03-.02.06-.03.081-.01.02-.01.04-.02.05l-.03.14-.241 1.375s-.01.09-.01.13v.111s.01.01.01.02v.1c0 .01 0 .03.01.04 0 .02 0 .041.01.061.01.02.01.04.02.06.01.02.02.04.02.06 0 0 0 .03.02.04.01.02.02.04.04.06 0 .01 0 .03.02.04l.03.061.04.04c.02.03.05.06.07.09h.01a.63.63 0 0 0 .181.141c.01.01.02.02.04.03.08.04.161.08.251.1h.02c.06.02.13.03.201.03h.04c.06 0 .11 0 .17-.01l1.376-.23c.21-.05.4-.14.551-.291l4.235-4.235.12-.14h.01a1.885 1.885 0 0 0 0-2.338h.02Zm-1.305.511s.09.04.13.06c.03.01.06.02.08.04.041.02.081.05.111.08l.1.131c.01.03.02.05.03.07.01.02.02.03.02.05.01.02.02.041.02.071.01.02.01.03.01.05v.242l-.03.1s0 .02-.01.02a.474.474 0 0 1-.14.211l-.441.442-.933-.933.441-.442c.13-.13.301-.19.462-.19h.15Zm-3.833 5.359-1.204.2.19-1.174 2.96-2.96.994.984-2.94 2.95Z"/>
</svg>
