<svg xmlns="http://www.w3.org/2000/svg" width="24" height="24" fill="currentColor" viewBox="0 0 24 24">
  <path d="M9.22 2.47a.75.75 0 0 1 .53-.22h9a1.5 1.5 0 0 1 1.5 1.5v7.5a.75.75 0 0 1-1.5 0v-7.5H10.5v4.5a.75.75 0 0 1-.75.75h-4.5v11.25H9a.75.75 0 0 1 0 1.5H5.25a1.5 1.5 0 0 1-1.5-1.5v-12a.75.75 0 0 1 .22-.53l5.25-5.25ZM6.31 7.5H9V4.81L6.31 7.5Zm9.493 4.72a.75.75 0 0 0 0 1.06l2.845 2.845h-7.523a.75.75 0 0 0 0 1.5h7.523l-2.845 2.845a.75.75 0 1 0 1.06 1.06l4.126-4.125a.75.75 0 0 0 0-1.06l-4.125-4.125a.75.75 0 0 0-1.061 0Z"/>
</svg>
