<svg xmlns="http://www.w3.org/2000/svg" width="24" height="24" fill="currentColor" viewBox="0 0 24 24">
  <path d="M12.687 2.548a.706.706 0 0 0-1.376 0 11.707 11.707 0 0 1-7.867 8.521c-.28.088-.562.166-.848.232a.706.706 0 0 0-.596.697v9.296c0 .39.316.706.706.706h18.588c.39 0 .706-.316.706-.706v-9.296a.706.706 0 0 0-.596-.697 11.702 11.702 0 0 1-8.717-8.753Zm7.902 10.372v7.669h-7.667l.009-.03a11.704 11.704 0 0 1 7.625-7.629l.033-.01Zm-9.51 7.669H3.412V12.92l.034.01a11.705 11.705 0 0 1 7.635 7.659Zm-6.078-8.59A13.132 13.132 0 0 0 12 5a13.134 13.134 0 0 0 7 7 13.13 13.13 0 0 0-7 7 13.131 13.131 0 0 0-7-7Z"/>
</svg>
