<svg width="24" height="24" viewBox="0 0 256 256" fill="none" xmlns="http://www.w3.org/2000/svg" fill="currentColor">
<path d="M12 3C12.4143 3 12.75 3.33579 12.75 3.75V10.7865L19.9146 7.20418C20.2851 7.01894 20.7356 7.16911 20.9209 7.53959C21.1061 7.91007 20.9559 8.36058 20.5855 8.54582L13.6771 12L20.5855 15.4542C20.9559 15.6394 21.1061 16.0899 20.9209 16.4604C20.7356 16.8309 20.2851 16.9811 19.9146 16.7958L12.75 13.2135V20.25C12.75 20.6642 12.4143 21 12 21C11.5858 21 11.25 20.6642 11.25 20.25V13.2135L4.08545 16.7958C3.71497 16.9811 3.26446 16.8309 3.07922 16.4604C2.89398 16.0899 3.04415 15.6394 3.41463 15.4542L10.323 12L3.41463 8.54582C3.04415 8.36058 2.89398 7.91007 3.07922 7.53959C3.26446 7.16911 3.71497 7.01894 4.08545 7.20418L11.25 10.7865V3.75C11.25 3.33579 11.5858 3 12 3Z" fill="black"/>
</svg>
