<svg width="24" height="24" viewBox="0 0 256 256" fill="none" xmlns="http://www.w3.org/2000/svg" fill="currentColor">
<path d="M10 3.4C9.11634 3.4 8.4 4.11634 8.4 5V7H12C13.6569 7 15 8.34315 15 10V13.6H17C17.8837 13.6 18.6 12.8837 18.6 12V5C18.6 4.11634 17.8837 3.4 17 3.4H10ZM7 7V5C7 3.34315 8.34315 2 10 2H17C18.6569 2 20 3.34315 20 5V12C20 13.6569 18.6569 15 17 15H15V17C15 18.6569 13.6569 20 12 20H5C3.34315 20 2 18.6569 2 17V10C2 8.34315 3.34315 7 5 7H7ZM13.6 15H10C8.34315 15 7 13.6569 7 12V8.4H5C4.11634 8.4 3.4 9.11634 3.4 10V17C3.4 17.8837 4.11634 18.6 5 18.6H12C12.8837 18.6 13.6 17.8837 13.6 17V15ZM13.6 13.6V10C13.6 9.11634 12.8837 8.4 12 8.4H8.4V12C8.4 12.8837 9.11634 13.6 10 13.6H13.6Z" fill="black"/>
</svg>
