<svg xmlns="http://www.w3.org/2000/svg" width="24" height="24" fill="currentColor" viewBox="0 0 24 24">
  <path d="m17.741 18.632.135.014a.68.68 0 0 1 .536.67.68.68 0 0 1-.536.67l-.135.014H6.258a.677.677 0 0 1-.67-.684c0-.378.3-.684.67-.684h11.483ZM21.33 15.7l.135.014a.68.68 0 0 1 .535.67.68.68 0 0 1-.535.67l-.135.014H2.67a.677.677 0 0 1-.67-.684c0-.378.3-.684.67-.684h18.66ZM11.27 3.684c0-.378.3-.684.67-.684.37 0 .67.306.67.684v7.752l2.624-2.679a.66.66 0 0 1 .948 0c.261.267.261.7 0 .967l-3.768 3.847a.66.66 0 0 1-.948 0L7.7 9.724l-.086-.107a.695.695 0 0 1 .086-.86.66.66 0 0 1 .842-.088l.105.088 2.624 2.68V3.683Z"/>
</svg>
