<svg xmlns="http://www.w3.org/2000/svg" width="24" height="24" fill="currentColor" viewBox="0 0 24 24">
  <path d="m4.25 9.667.003-.004.017-.022a8.042 8.042 0 0 1 .376-.462A9.814 9.814 0 0 1 5.81 8.052c1.012-.825 2.403-1.604 4.036-1.604 1.811 0 3.074.702 3.885 1.705.495.612.838 1.357 1.026 2.163a10.322 10.322 0 0 0-2.45-.295c-3.916 0-6.146 2.032-6.528 4.367-.186 1.14.091 2.302.81 3.182.725.886 1.85 1.43 3.257 1.43 4.025 0 6.218-3.322 6.445-6.616.553.26 1.05.555 1.485.85a11.44 11.44 0 0 1 1.504 1.22 8.669 8.669 0 0 1 .477.499l.021.024.003.004h.001a.671.671 0 0 0 .976.08.747.747 0 0 0 .076-1.021l-.526.47.526-.47v-.001l-.002-.002-.003-.003-.01-.012-.033-.039a10.153 10.153 0 0 0-.567-.593 12.84 12.84 0 0 0-1.688-1.37 12.13 12.13 0 0 0-2.283-1.224c-.161-1.301-.637-2.561-1.46-3.578C13.696 5.867 12.035 5 9.846 5c-2.059 0-3.745.978-4.887 1.91a11.224 11.224 0 0 0-1.691 1.721 6.268 6.268 0 0 0-.122.163l-.008.01-.003.004v.002l.557.429-.558-.428a.746.746 0 0 0 .15 1.012.673.673 0 0 0 .967-.156Zm10.675 2.191c0 .041 0 .082-.002.123-.07 2.867-1.866 5.57-5.077 5.57-1.054 0-1.775-.397-2.204-.922-.435-.533-.62-1.254-.498-1.997.234-1.43 1.696-3.163 5.164-3.163.947 0 1.823.15 2.617.389Z"/>
</svg>
