<svg xmlns="http://www.w3.org/2000/svg" width="24" height="24" fill="currentColor" viewBox="0 0 24 24">
  <path fill="#191C1D" d="M14 2.25a.75.75 0 0 1 .75.75v4a.25.25 0 0 0 .25.25h4a.75.75 0 0 1 0 1.5h-4A1.75 1.75 0 0 1 13.25 7V3a.75.75 0 0 1 .75-.75Z"/>
  <path fill="#191C1D" d="M7 3.75A1.25 1.25 0 0 0 5.75 5v14A1.25 1.25 0 0 0 7 20.25h10A1.25 1.25 0 0 0 18.25 19V8.31l-4.56-4.56H7Zm-1.945-.695A2.75 2.75 0 0 1 7 2.25h7a.75.75 0 0 1 .53.22l5 5c.141.14.22.331.22.53v11A2.75 2.75 0 0 1 17 21.75H7A2.75 2.75 0 0 1 4.25 19V5c0-.73.29-1.429.805-1.945Z"/>
  <path fill="#191C1D" d="M12.47 10.47a2.164 2.164 0 1 1 3.06 3.06l-5 5a.75.75 0 0 1-.53.22H8a.75.75 0 0 1-.75-.75v-2a.75.75 0 0 1 .22-.53l5-5Zm1.53.866a.665.665 0 0 0-.47.194l-4.78 4.78v.94h.94l4.78-4.78a.665.665 0 0 0-.47-1.134Z"/>
</svg>
