<svg xmlns="http://www.w3.org/2000/svg" width="24" height="24" fill="currentColor" viewBox="0 0 24 24">
  <path d="M8 3.75A1.25 1.25 0 0 0 6.75 5v14A1.25 1.25 0 0 0 8 20.25h8A1.25 1.25 0 0 0 17.25 19V5A1.25 1.25 0 0 0 16 3.75h-2.293a.75.75 0 0 1-.707 1h-2a.75.75 0 0 1-.707-1H8Zm-1.945-.695A2.75 2.75 0 0 1 8 2.25h8A2.75 2.75 0 0 1 18.75 5v14A2.75 2.75 0 0 1 16 21.75H8A2.75 2.75 0 0 1 5.25 19V5c0-.73.29-1.429.805-1.945ZM12 16.25a.75.75 0 0 1 .75.75v.01a.75.75 0 0 1-1.5 0V17a.75.75 0 0 1 .75-.75Z"/>
</svg>
