<svg xmlns="http://www.w3.org/2000/svg" width="24" height="24" fill="currentColor" viewBox="0 0 24 24">
  <path d="M18 3.25a.75.75 0 0 1 .75.75A1.25 1.25 0 0 0 20 5.25a.75.75 0 0 1 0 1.5A1.25 1.25 0 0 0 18.75 8a.75.75 0 0 1-1.5 0A1.25 1.25 0 0 0 16 6.75a.75.75 0 0 1 0-1.5A1.25 1.25 0 0 0 17.25 4a.75.75 0 0 1 .75-.75Zm0 2.637a2.738 2.738 0 0 1-.113.113 2.708 2.708 0 0 1 .113.113A2.738 2.738 0 0 1 18.113 6 2.683 2.683 0 0 1 18 5.887ZM9 5.25a.75.75 0 0 1 .75.75A5.25 5.25 0 0 0 15 11.25a.75.75 0 0 1 0 1.5A5.25 5.25 0 0 0 9.75 18a.75.75 0 0 1-1.5 0A5.25 5.25 0 0 0 3 12.75a.75.75 0 0 1 0-1.5A5.25 5.25 0 0 0 8.25 6 .75.75 0 0 1 9 5.25Zm0 3.842A6.749 6.749 0 0 1 6.092 12 6.75 6.75 0 0 1 9 14.908 6.75 6.75 0 0 1 11.908 12 6.75 6.75 0 0 1 9 9.092Zm9 6.158a.75.75 0 0 1 .75.75A1.25 1.25 0 0 0 20 17.25a.75.75 0 0 1 0 1.5A1.25 1.25 0 0 0 18.75 20a.75.75 0 0 1-1.5 0A1.25 1.25 0 0 0 16 18.75a.75.75 0 0 1 0-1.5A1.25 1.25 0 0 0 17.25 16a.75.75 0 0 1 .75-.75Zm0 2.637a2.71 2.71 0 0 1-.113.113 2.71 2.71 0 0 1 .113.113 2.71 2.71 0 0 1 .113-.113 2.71 2.71 0 0 1-.113-.113Z"/>
</svg>
