<svg xmlns="http://www.w3.org/2000/svg" width="24" height="24" fill="currentColor" viewBox="0 0 24 24">
  <path d="M8.833 13.605h6.333L14.903 13h1.72l2.303 5.299a.9.9 0 0 1-.128.926.788.788 0 0 1-.244.195.731.731 0 0 1-.856-.139.844.844 0 0 1-.18-.264l-1.62-3.728H8.102l-1.62 3.728a.841.841 0 0 1-.18.264.77.77 0 0 1-.261.17.725.725 0 0 1-.595-.031.786.786 0 0 1-.244-.195.861.861 0 0 1-.156-.283.908.908 0 0 1 .028-.643L7.377 13h1.72l-.264.605ZM20.25 10.5a.75.75 0 0 1 0 1.5H3.75a.75.75 0 0 1 0-1.5h16.5ZM12 3.5a.74.74 0 0 1 .417.13.826.826 0 0 1 .287.353L15.102 9.5h-1.72L12 6.32 10.618 9.5h-1.72l2.398-5.517a.826.826 0 0 1 .287-.352A.736.736 0 0 1 12 3.5Z"/>
</svg>
