<svg width="24" height="24" viewBox="0 0 24 24" fill="none" xmlns="http://www.w3.org/2000/svg" fill="currentColor">
<path d="M18.75 3.75C19.5784 3.75 20.25 4.42157 20.25 5.25V18.75C20.25 19.5784 19.5784 20.25 18.75 20.25H5.25C4.42157 20.25 3.75 19.5784 3.75 18.75V5.25C3.75 4.42157 4.42157 3.75 5.25 3.75H18.75ZM5.25 18.75H6.75V5.25H5.25V18.75ZM8.25 18.75H9.75V5.25H8.25V18.75ZM11.25 18.75H12.75V5.25H11.25V18.75ZM17.25 18.75H18.75V5.25H17.25V18.75ZM14.25 18.75H15.75V5.25H14.25V18.75Z" fill="black"/>
</svg>
