<svg xmlns="http://www.w3.org/2000/svg" width="24" height="24" fill="currentColor" viewBox="0 0 24 24">
  <path d="M7.778 5.349a.891.891 0 0 0 0 1.782.891.891 0 0 0 0-1.782ZM4.5 6.24a.891.891 0 1 1 1.783 0 .891.891 0 0 1-1.783 0Zm5.664-.891a.891.891 0 1 0 0 1.782.891.891 0 0 0 0-1.782Z"/>
  <path d="M2 4.856C2 3.201 3.553 2 5.253 2h5.05c1.7 0 3.253 1.2 3.253 2.856v2.768c0 1.654-1.55 2.853-3.247 2.856v1.697a.58.58 0 0 1-.955.442L6.843 10.48h-1.59C3.554 10.48 2 9.28 2 7.624V4.856Zm3.253-1.697c-1.241 0-2.094.85-2.094 1.697v2.768c0 .848.853 1.698 2.094 1.698h1.803a.58.58 0 0 1 .376.138l1.719 1.463V9.901c0-.32.259-.58.579-.58h.573c1.241 0 2.094-.848 2.094-1.697V4.856c0-.848-.853-1.697-2.094-1.697h-5.05Zm12.971 3.187L6.747 17.864a.58.58 0 0 0-.157.29l-.641 3.053a.581.581 0 0 0-.01.054l-.01.094a.58.58 0 0 0 .696.632l3.137-.667a.58.58 0 0 0 .29-.157c3.828-3.837 7.654-7.672 11.486-11.504a1.585 1.585 0 0 0 0-2.237l-1.076-1.076a1.585 1.585 0 0 0-2.238 0ZM7.978 18.27l8.806-8.834 1.678 1.662c-2.638 2.64-6.184 6.193-8.821 8.836L7.978 18.27Zm9.624-9.654 1.442-1.45a.427.427 0 0 1 .599 0l1.076 1.075a.427.427 0 0 1 0 .599l-1.438 1.438-1.68-1.662ZM8.478 20.409l-1.233.262.26-1.235.973.973Z"/>
</svg>
