<svg xmlns="http://www.w3.org/2000/svg" width="24" height="24" fill="currentColor" viewBox="0 0 24 24">
  <path d="M22.75 20.001h-1.5v-10.5a1.499 1.499 0 0 0-1.5-1.5h-4.72v-4.5a1.486 1.486 0 0 0-.79-1.32 1.494 1.494 0 0 0-1.54.07l-8.78 5c-.21.14-.37.32-.49.54-.12.22-.18.46-.18.71v11.5h-1.5a.75.75 0 0 0 0 1.5h21a.75.75 0 0 0 0-1.5Zm-3-10.5v10.5h-4.72v-10.5h4.72Zm-15-1 8.78-5v16.5H4.75v-11.5Z"/>
  <path d="M11.1 12.261H7.18c-.41 0-.75-.34-.75-.75s.34-.75.75-.75h3.92c.41 0 .75.34.75.75s-.34.75-.75.75Zm0 3.05H7.18c-.41 0-.75-.34-.75-.75s.34-.75.75-.75h3.92c.41 0 .75.34.75.75s-.34.75-.75.75Zm0 3.16H7.18c-.41 0-.75-.34-.75-.75s.34-.75.75-.75h3.92c.41 0 .75.34.75.75s-.34.75-.75.75Z"/>
</svg>
