<svg xmlns="http://www.w3.org/2000/svg" width="24" height="24" fill="currentColor" viewBox="0 0 24 24">
  <path d="M2 6.064C2 5.626 2.296 5 2.943 5h4.771c.647 0 .943.626.943 1.064v5.032c0 .438-.296 1.064-.943 1.064H2.943c-.647 0-.943-.626-.943-1.064V6.064Zm1.543.616v3.8h3.571v-3.8H3.543Zm-.793 7.261a2.33 2.33 0 0 1 .707-.101h17.086c.243 0 .492.031.706.101.103.033.241.09.372.19.11.086.379.335.379.773v4.032a.969.969 0 0 1-.379.772c-.13.101-.27.158-.372.191a2.33 2.33 0 0 1-.706.101H3.457a2.33 2.33 0 0 1-.706-.101 1.231 1.231 0 0 1-.372-.19.969.969 0 0 1-.379-.773v-4.032a.97.97 0 0 1 .379-.772c.13-.101.27-.158.372-.191Zm.793 1.579v2.8h16.914v-2.8H3.543Zm-.35 2.77-.005-.002.004.001Zm17.62-2.737-.005-.002a.037.037 0 0 1 .004.002ZM11.357 5a1.27 1.27 0 0 0-.636.164 1.034 1.034 0 0 0-.521.9v5.032c0 .523.352.801.521.9.203.117.429.164.636.164h9.486c.207 0 .433-.047.636-.164.169-.099.521-.377.521-.9V6.064c0-.523-.352-.801-.521-.9A1.27 1.27 0 0 0 20.843 5h-9.486Zm.386 5.48v-3.8h8.714v3.8h-8.714Z"/>
</svg>
