<svg xmlns="http://www.w3.org/2000/svg" width="24" height="24" fill="currentColor" viewBox="0 0 24 24">
  <path fill-rule="evenodd" d="M5 4.75a.25.25 0 0 0-.25.25v2a.25.25 0 0 0 .25.25h14a.25.25 0 0 0 .25-.25V5a.25.25 0 0 0-.25-.25H5Zm-1.237-.987A1.75 1.75 0 0 1 5 3.25h14A1.75 1.75 0 0 1 20.75 5v2A1.75 1.75 0 0 1 19 8.75H5A1.75 1.75 0 0 1 3.25 7V5c0-.464.184-.91.513-1.237ZM5 12.75a.25.25 0 0 0-.25.25v6a.25.25 0 0 0 .25.25h4a.25.25 0 0 0 .25-.25v-6a.25.25 0 0 0-.25-.25H5Zm-1.237-.987A1.75 1.75 0 0 1 5 11.25h4A1.75 1.75 0 0 1 10.75 13v6A1.75 1.75 0 0 1 9 20.75H5A1.75 1.75 0 0 1 3.25 19v-6c0-.464.184-.91.513-1.237ZM13.25 12a.75.75 0 0 1 .75-.75h6a.75.75 0 0 1 0 1.5h-6a.75.75 0 0 1-.75-.75Zm0 4a.75.75 0 0 1 .75-.75h6a.75.75 0 0 1 0 1.5h-6a.75.75 0 0 1-.75-.75Zm0 4a.75.75 0 0 1 .75-.75h6a.75.75 0 0 1 0 1.5h-6a.75.75 0 0 1-.75-.75Z" clip-rule="evenodd"/>
</svg>
