<svg width="24" height="24" viewBox="0 0 24 24" fill="none" xmlns="http://www.w3.org/2000/svg" fill="currentColor">
<path d="M12 14.0625C12 13.6483 11.6642 13.3125 11.25 13.3125H3.75C3.33579 13.3125 3 13.6483 3 14.0625C3 14.4767 3.33579 14.8125 3.75 14.8125H11.25C11.6642 14.8125 12 14.4767 12 14.0625Z" fill="black"/>
<path d="M21 10.0312C21 9.61704 20.6642 9.28125 20.25 9.28125L3.75 9.28125C3.33579 9.28125 3 9.61704 3 10.0313C3 10.4455 3.33579 10.7813 3.75 10.7813L20.25 10.7812C20.6642 10.7812 21 10.4455 21 10.0312Z" fill="black"/>
</svg>
