<svg xmlns="http://www.w3.org/2000/svg" width="24" height="24" fill="currentColor" viewBox="0 0 24 24">
  <path d="M22.5 5v14a1.5 1.5 0 0 1-1.5 1.5H3A1.5 1.5 0 0 1 1.5 19V5A1.5 1.5 0 0 1 3 3.5h18A1.5 1.5 0 0 1 22.5 5ZM21 19V5H3v14h18Z"/>
  <path d="M20 6.75v3.53a.75.75 0 1 1-1.5 0V7.5h-2.78a.75.75 0 0 1 0-1.5h3.53a.75.75 0 0 1 .75.75ZM8.25 16.5H5.5v-2.75a.75.75 0 1 0-1.5 0v3.5a.75.75 0 0 0 .75.75h3.5a.75.75 0 1 0 0-1.5Zm11-3.5a.75.75 0 0 0-.75.75v2.75h-2.78a.75.75 0 1 0 0 1.5h3.53a.75.75 0 0 0 .75-.75v-3.5a.75.75 0 0 0-.75-.75Zm-11-7h-3.5a.75.75 0 0 0-.75.75v3.5a.75.75 0 1 0 1.5 0V7.5h2.75a.75.75 0 0 0 0-1.5Z"/>
</svg>
